<svg viewBox="0 0 345 387" xmlns="http://www.w3.org/2000/svg"><title>file_type_hugo</title><path d="M331 248V126c0-16-8.4-31-22-39-29-17-81-48-113-67-17-9.9-38-9.6-54 .58-28 17-72 44-1e2 62-17 11-28 29-28 49v125c0 20 11 38 28 48l105 61c14 8.1 31 8.3 45 .47 31-17 85-47 116-65 15-8.2 24-24 24-41v-14z" fill="#ff4088"></path><path d="M169 0h.28l.25.003h1.4l.25.01h.03l.25.01h.027l.25.01h.02l.25.01h.03l.24.01h.03l.24.01h.02l.25.01h.03l.25.02h.03l.24.02h.02l.24.02h.03l.25.02h.02l.24.02h.03l.25.02h.03l.25.02h.03l.25.02h.03l.24.02h.03l.24.02h.03l.25.02h.03l.25.03h.03l.25.03h.02l.24.03h.03l.24.03h.03l.25.03h.03l.25.03h.02l.24.03h.03l.25.03h.03l.24.04.03.01.25.04h.03l.24.04h.02l.25.04h.03l.24.04h.03l.24.04h.02l.25.04h.03l.24.04.03.01.24.04.03.01.24.05h.03l.24.04h.03l.24.05h.03l.25.05h.02l.24.05h.03l.24.05h.02l.25.05.03.01.25.05h.02l.24.06.03.01.24.06h.03l.25.06.02.01.24.05.03.01.24.05.02.01.24.06h.03l.24.06.03.01.24.06.02.01.25.06.02.01.24.06.03.01.24.06h.02l.24.07h.03l.25.06.03.01.24.06h.03l.24.07.27.08.27.08.27.08.02.01.24.07.27.08.27.08.27.09.02.01.24.08h.03l.24.08h.03l.78.26.02.01.51.17.02.01.24.08.02.01.52.18.23.09.03.01.27.1.23.09.02.01.24.08.02.01.54.2.23.09.03.01.23.1.02.01.27.1.23.1.03.01.24.1.03.01.24.1.02.01.24.1.02.01.23.1.02.01.23.1.02.01.24.1.02.01.23.1.03.01.23.1.03.01.23.1.25.12.03.01.23.11.03.01.23.11.25.12.25.12.03.01.23.11.03.01.23.11.03.01.23.11.02.01.23.12.02.02.23.11.02.01.22.12.03.01.23.11.02.01.23.12.03.01.22.12.03.02.23.12.03.01.25.13.22.12.03.02.23.12.02.02.22.13.02.02.22.13.03.01.22.13.02.01.22.13.02.02.22.13.24.15h.02l113 67 .02.02.19.11.03.01.18.12.02.02.18.11.02.02.18.11.02.01.18.11.02.01.18.11.02.01.18.11.03.01.18.12.02.01.18.12.03.01.18.11.02.01.18.12.02.02.18.12.02.02.17.11.03.01.18.12.02.01.18.12.02.01.17.12.02.01.17.12.02.01.17.12.02.02.17.12.02.01.17.13.03.02.17.12.02.01.17.12.02.01.17.12.02.02.17.12.02.01.17.12.02.02.17.12.02.02.17.13.03.02.16.13.03.02.17.13.03.01.17.13.02.02.17.13.02.02.16.13.03.02.17.14.03.03.32.26.04.03.32.27.04.03.33.27.04.03.33.27.04.03.32.27.04.04.32.27.04.03.31.28.04.03.31.28.04.03.31.29.04.03.3.28.04.03.31.29.34.33.34.33.37.37.62.64.03.04.33.34.28.3.04.04.28.3.04.04.28.3.04.04.28.31.04.04.27.32.03.04.28.31.04.04.27.32.04.04.27.32.03.04.27.32.04.04.26.32.03.04.26.32.04.04.26.33.28.37.28.37.28.37.03.05.53.71.03.05.24.34.03.04.24.34.03.04.24.34.03.05.23.34.03.05.23.35.03.05.22.34.03.04.22.34.03.04.23.35.03.04.22.35.27.45.22.35.27.45.21.36.03.04.2.36.03.05.2.36.03.05.2.36.03.05.2.36.02.05.2.37.02.05.19.37.02.05.19.37.03.04.18.38.02.05.19.37.02.05.18.37.03.05.17.38.02.05.17.38.02.05.17.38.02.05.17.38.02.05.16.38.02.05.16.38.02.05.15.39.02.05.17.43.15.39.02.05.15.39.02.05.15.39.02.05.14.39.02.05.13.39.02.05.13.39.02.05.13.39.02.05.13.4.01.05.12.39.02.05.12.4.01.05.12.4.02.05.12.4.02.05.11.4.02.05.11.4.01.05.1.4.02.06.11.41.01.05.1.41.02.05.09.41.02.05.1.41.01.06.09.41.01.05.09.41.01.05.08.41.01.05.08.41.01.05.08.41.01.05.07.42.01.05.07.41.09.54.06.42.01.06.06.41v.04l.03.22v.02l.02.21v.03l.03.21v.02l.03.21v.03l.03.21.01.03.03.21v.03l.02.21.01.02.02.21.01.03.02.21v.03l.02.21.01.03.02.21.01.03.02.21v.03l.02.21v.03l.02.21v.03l.02.21v.03l.02.21v.03l.01.21v.03l.01.22v.03l.02.22v.02l.01.21v.03l.01.21v.03l.01.21v.03l.01.21v.03l.01.22v.03l.01.21v.03l.01.21v.02l.01.21v140l-.01.23v.29l-.01.23v.03l-.01.22v.02l-.01.23v.03l-.01.22v.02l-.01.22v.03l-.01.22-.01.03-.01.22v.03l-.01.22v.02l-.01.23v.03l-.02.23v.02l-.02.23v.03l-.02.22v.03l-.01.22v.03l-.02.22v.03l-.02.22v.03l-.02.22v.03l-.02.22-.01.02-.02.23-.01.03-.02.22v.03l-.02.22-.01.03-.03.22v.03l-.03.22v.02l-.03.22v.03l-.03.22-.01.03-.03.23-.01.03-.03.22-.01.03-.03.22v.03l-.03.22v.03l-.03.22-.01.03-.03.22-.01.03-.04.22v.02l-.03.22v.02l-.04.22-.01.03-.03.22-.01.03-.03.22v.02l-.04.22v.02l-.04.22v.02l-.04.22v.03l-.04.21-.01.03-.04.21-.01.03-.04.22-.01.03-.05.22v.02l-.05.22v.02l-.04.21v.03l-.05.22v.02l-.04.22-.01.02-.05.21v.02l-.05.21v.03l-.05.21-.01.03-.05.21-.01.03-.05.21-.01.02-.05.21-.01.02-.05.21-.01.03-.06.21-.01.03-.05.21-.01.03-.06.21v.03l-.06.22-.01.03-.06.21v.03l-.06.21-.01.03-.06.21-.01.03-.06.22-.01.02-.06.21-.01.02-.06.21-.09.27-.06.21-.01.02-.06.21-.01.03-.06.21-.01.02-.39 1.2-.01.02-.23.69-.01.02-.16.48-.08.2-.01.03-.07.2-.01.03-.07.2-.09.27-.08.21-.01.03-.08.2-.01.03-.08.2-.01.03-.08.2-.01.03-.08.2-.01.03-.08.2-.01.03-.08.2-.01.02-.09.2-.01.03-.09.21-.01.03-.08.2-.01.03-.09.2-.01.03-.09.2-.01.03-.09.2-.01.02-.09.2-.01.03-.09.2-.01.02-.09.2-.01.02-.09.2-.01.02-.09.2-.12.24-.1.19-.01.03-.09.2-.01.02-.1.19-.01.03-.09.2-.11.22-.01.03-.11.22-.1.19-.11.22-.01.03-.1.2-.01.03-.1.2-.02.03-.1.19-.11.22-.01.03-.1.2-.01.03-.11.19-.02.02-.11.19-.01.02-.11.19-.01.02-.11.19-.01.02-.11.19-.01.02-.11.19-.01.03-.11.19-.01.02-.11.19-.01.03-.11.19-.02.02-.11.19-.02.02-.11.19-.01.02-.11.19-.01.03-.12.19-.01.02-.11.18-.01.03-.11.18-.02.02-.12.19-.01.03-.12.18-.02.02-.12.18-.01.02-.12.19-.14.21-.02.02-.12.18-.01.02-.12.19-.01.02-.12.18-.02.02-.13.18-.01.02-.12.18-.01.02-.13.18-.01.02-.12.18-.02.02-.12.18-.02.02-.13.18-.02.02-.12.18-.01.02-.13.18-.14.21-.02.02-.13.18-.02.02-.13.18-.02.02-.13.18-.02.02-.13.18-.01.02-.13.17-.02.02-.13.17-.01.02-.14.17-.02.02-.13.17-.01.02-.13.18-.02.02-.14.18-.02.02-.14.17-.02.02-.14.17-.01.02-.14.17-.02.02-.14.17-.02.02-.14.17-.02.02-.14.17-.02.02-.14.17-.01.02-.14.17-.02.02-.15.17-.02.02-.14.17-.02.02-.14.17-.02.02-.14.17-.02.02-.14.17-.02.02-.14.16-.02.02-.15.17-.02.02-.14.17-.02.02-.15.17-.02.02-.14.17-.02.02-.15.16-.02.02-.15.16-.02.02-.15.16-.02.02-.15.16-.02.02-.15.16-.02.02-.15.16-.02.02-.15.16-.02.02-.15.16-.2.2-.15.16-.35.35-.03.02-.18.18-.16.15-.2.2-.16.15-.02.02-.16.15-.02.02-.16.15-.02.02-.16.15-.02.02-.16.15-.02.02-.16.15-.02.02-.17.15-.02.01-.16.15-.02.02-.17.15-.02.02-.17.15-.02.01-.17.15-.02.02-.17.14-.03.02-.17.14-.02.02-.17.15-.02.02-.17.15-.02.02-.17.15-.02.02-.17.14-.02.02-.18.14-.02.01-.17.14-.02.02-.17.14-.03.02-.17.14-.02.02-.17.14-.02.02-.17.14-.02.02-.18.14-.02.02-.17.13-.02.02-.18.14-.02.02-.18.14-.02.02-.18.14-.02.02-.18.14-.02.01-.18.13-.02.01-.18.13-.02.01-.18.13-.03.01-.18.13-.02.02-.18.13-.02.02-.18.13-.02.02-.18.13-.03.02-.18.13-.02.01-.19.13-.03.01-.19.13-.02.02-.19.13-.02.02-.19.12-.02.02-.19.13-.02.02-.18.13-.03.02-.19.12-.02.01-.19.12-.03.01-.19.12-.02.02-.19.12-.02.02-.19.12-.02.01-.19.12-.03.01-.19.12-.02.02-.19.12-.03.01-.44.28-.2.12-.02.02-.19.11-.03.01-.19.11-.02.02-.2.12-.03.02-.2.11-.02.02-.19.11-.03.01-.2.11-.03.01-.2.11-.02.01-.19.11-.01.01-116 65h-.01l-.18.11-.03.01-.19.11-.03.02-.19.1-.03.01-.19.1-.21.11-.03.01-.19.1-.03.01-.19.1-.03.01-.19.1-.21.11-.02.01-.41.2-.02.02-.19.1-.02.01-.42.2-.19.1-.02.01-.43.2-.62.29-.03.02-.22.1-.2.08-.02.01-.2.09-.02.02-.2.09-.03.01-.19.08-.02.01-.22.1-.2.08-.02.01-.2.08-.02.01-.2.08-.03.01-.2.08-.03.01-.2.08-.03.01-.19.08-.02.01-.2.07-.02.01-.2.08-.03.01-.2.08-.03.01-.2.08-.23.08-.03.01-.2.08-.23.08-.02.01-.2.07-.23.08-.23.08-.23.08-.02.01-.4.14-.03.01-.44.13-.02.01-.2.07-.02.01-.91.28-.44.13-.05.02-.41.12-.05.01-.41.12-.05.01-.41.11-.05.02-.41.11-.05.01-.41.11-.06.01-.41.1-.46.11-.06.01-.41.1-.46.1-.47.1-.48.1-.05.01-.47.09-.92.17-.94.16-.42.06-.05.01-.42.06-.05.01-.42.06-.05.01-.48.07-.42.05-.05.01-.42.05-.05.01-.42.05-.42.04h-.05l-.42.03-.05.01-.42.03h-.05l-.42.03h-.05l-.42.03-.06.01-.42.03h-.05l-.42.02h-.05l-.42.02h-.06l-.42.01h-.05l-.42.01h-.05l-.42.01h-1.5l-.84-.02h-.06l-.42-.01h-.009l-.42-.02-.05-.01-.42-.02h-.05l-.42-.02-.05-.01-.42-.02h-.05l-.42-.03-.05-.01-.42-.04-.06-.01-.42-.04-.06-.01-.42-.04-.05-.01-.42-.04h-.05l-.42-.04-.05-.01-.42-.05h-.06l-.42-.05-.48-.07-.05-.01-.42-.06-.05-.01-.42-.06-.05-.01-.42-.06-.46-.08h-.03l-.47-.09-1.8-.35-.05-.01-.41-.09-.06-.02-.46-.1-.41-.1-.056-.02-.41-.1-.05-.02-.41-.11-.05-.01-.41-.11-.05-.02-.41-.11-.05-.02-.41-.11-.05-.02-.41-.12-.47-.14-.05-.02-.41-.12-.05-.02-.41-.12-.05-.01-.4-.13-.04-.01-.21-.07h-.027l-.2-.06-.03-.01-1.1-.39-.02-.01-.2-.07-.02-.01-.2-.07-.02-.01-.2-.08-.03-.01-.2-.08-.03-.01-.2-.08-.02-.01-.2-.08-.03-.01-.2-.08-.02-.01-.2-.08-.03-.01-.2-.08-.02-.01-.2-.08-.02-.01-.2-.08-.03-.01-.2-.08-.03-.01-.2-.08-.03-.01-.2-.08-.03-.01-.2-.08-.22-.1-.03-.01-.19-.09-.22-.1-.22-.1-.02-.01-.2-.08-.03-.01-.19-.09-.03-.01-.2-.09-.03-.01-.19-.09-.02-.02-.19-.09-.21-.1-.22-.1-.02-.02-.2-.1-.02-.02-.19-.09-.03-.01-.2-.09-.02-.02-.19-.1-.03-.01-.22-.11-.19-.1-.03-.01-.4-.21-.03-.02-.61-.32-.03-.02-.21-.11-.19-.11-.03-.02-.19-.1-.03-.01-.19-.1-.03-.01-.19-.1-.03-.01-.19-.11-.03-.01-.18-.11-.03-.01-.18-.11-.01-.01-105-61-.01-.01-.22-.13-.02-.01-.22-.13-.03-.01-.23-.13-.03-.01-.22-.14-.02-.01-.22-.14-.02-.02-.22-.14-.02-.02-.22-.14-.03-.01-.22-.13-.25-.16-.02-.02-.22-.14h.051l-.22-.14-.25-.16-.02-.02-.22-.14-.5-.34-.02-.02-.22-.14-.02-.02-.22-.15-.02-.02-.22-.15-.02-.02-.46-.32-.02-.02-.21-.15-.025-.02-.21-.15-.24-.17-.02-.01-.21-.15-.02-.02-.21-.15-.02-.02-.21-.15-.03-.01-.21-.15-.02-.02-.21-.16-.02-.02-.21-.15-.24-.18-.026-.02-.2-.16-.02-.02-.2-.16-.02-.01-.2-.16-.02-.02-.2-.16-.02-.02-.2-.16-.02-.02-.2-.16-.02-.02-.2-.16-.02-.02-.2-.16-.02-.02-.2-.17-.02-.01-.2-.16-.02-.02-.19-.16-.02-.02-.2-.17-.02-.02-.2-.16-.02-.02-.2-.17-.02-.01-.2-.16-.02-.02-.19-.16-.02-.02-.19-.17-.02-.02-.19-.17-.02-.02-.19-.17-.02-.02-.19-.17-.02-.02-.19-.17-.02-.02-.19-.18-.02-.01-.19-.17-.03-.02-.18-.18-.02-.02-.19-.17-.21-.2-.42-.42-.19-.18-.02-.02-.19-.18-.02-.01-1.2-1.2-.17-.18-.22-.22-.18-.19-.02-.02-.17-.19-.02-.02-.17-.19-.02-.02-.18-.19-.02-.02-.17-.19-.02-.02-.17-.19-.02-.02-.17-.19-.02-.02-.17-.19-.02-.02-.17-.19-.01-.02-.16-.19-.02-.02-.17-.19-.02-.02-.18-.2-.02-.02-.17-.19-.02-.02-.17-.2-.02-.02-.16-.19-.01-.02-.16-.19-.02-.02-.16-.2-.02-.02-.17-.2-.02-.02-.16-.19-.02-.02-.17-.19-.02-.02-.16-.19-.02-.02-.16-.2-.02-.02-.16-.2-.02-.02-.16-.2-.02-.02-.16-.2-.02-.02-.16-.2-.01-.02-.15-.2-.02-.02-.15-.2-.01-.02-.15-.2-.02-.02-.15-.21-.02-.02-.15-.2-.02-.02-.15-.2-.01-.02-.15-.21-.01-.02-.15-.21-.01-.02-.15-.2-.01-.02-.15-.2-.02-.02-.15-.21-.02-.02-.15-.21-.16-.24-.02-.02-.14-.21-.02-.02-.14-.21-.02-.02-.14-.21-.01-.02-.3-.45-.02-.02-.14-.21-.02-.02-.14-.21-.02-.02-.14-.21-.02-.02-.13-.21-.01-.02-.13-.21-.32-.48-.01-.02-.14-.22-.01-.03-.13-.21-.02-.02-.13-.21-.02-.02-.13-.22-.02-.03-.13-.21-.01-.02-.13-.22-.01-.02-.13-.21-.02-.03-.13-.22-.02-.03-.13-.22-.02-.03-.12-.22-.02-.02-.13-.22-.01-.02-.12-.22-.01-.02-.12-.22-.01-.03-.12-.22-.02-.03-.12-.22-.01-.03-.12-.23-.01-.02-.12-.22-.01-.03-.12-.22-.01-.03-.12-.22-.01-.03-.11-.23-.01-.02-.12-.23-.01-.03-.12-.23-.02-.02-.11-.23-.12-.24-.01-.03-.11-.23v.01l-.11-.23-.02-.03-.11-.23-.01-.03-.11-.22-.01-.03-.11-.23-.01-.02-.11-.23-.01-.02-.1-.23-.01-.02-.11-.23-.01-.02-.11-.23-.01-.02-.11-.23-.01-.03-.1-.23-.01-.02-.11-.23-.01-.03-.11-.23-.01-.02-.1-.23-.01-.02-.1-.23-.01-.03-.1-.23-.01-.02-.09-.23-.01-.02-.1-.23-.01-.03-.09-.24-.01-.02-.1-.23-.01-.03-.09-.22-.01-.03-.1-.24-.01-.02-.09-.24-.01-.03-.09-.24-.01-.02-.09-.24-.01-.03-.09-.24-.01-.02-.09-.24-.01-.02-.09-.27-.09-.24-.01-.02-.18-.54-.09-.24-.09-.27-.01-.02-.08-.24-.01-.02-.44-1.3-.009-.029-.07-.24-.01-.02-.08-.25-.01-.03-.07-.25-.01-.03-.07-.24-.01-.03-.07-.24-.01-.03-.07-.25-.01-.03-.07-.25-.01-.02-.07-.25-.01-.01-.07-.25-.01-.02-.06-.24-.01-.02-.06-.24v-.02l-.07-.25v-.03l-.06-.24-.01-.03-.06-.24-.01-.03-.06-.25h.01l-.06-.25-.01-.02-.06-.25-.01-.02-.06-.25-.01-.02-.06-.25.01-.01-.06-.25-.01-.03-.06-.25-.01-.03-.05-.25-.01-.03-.06-.25-.01-.02-.05-.25-.01-.03-.05-.25-.01-.03-.1-.5v-.03l-.05-.26v-.03l-.05-.25-.01-.03-.06-.24v-.03l-.05-.27-.01-.03-.05-.26-.01-.03-.04-.25-.01-.03-.04-.25v-.03l-.04-.25v-.03l-.04-.25-.01-.03-.04-.25v.01l-.04-.25v-.02l-.04-.25v-.03l-.04-.25v-.03l-.04-.25v-.02l-.03-.26v-.03l-.03-.25v-.02l-.04-.26-.01-.03-.03-.25v-.03l-.03-.26-.01-.03-.03-.26v-.03l-.03-.26-.01-.03-.03-.26v-.03l-.03-.26-.01-.02-.03-.26-.02-.26v-.03l-.03-.26-.01-.03-.03-.26v-.03l-.02-.26-.01-.03-.02-.26v-.03l-.02-.26v-.03l-.04-.52v-.03l-.02-.26v-.03l-.02-.26v-.32l-.01-.26v-.03l-.01-.26v-.03l-.01-.26-.01-.03-.01-.26v-.28l-.01-.26v-.03l-.01-.26v-127l.01-.25v-.32l.01-.26v-.92l.01-.26v-.02l.01-.26v-.03l.01-.26v-.03l.01-.26v-.02l.01-.26v-.03l.01-.26v-.03l.02-.27v-.03l.02-.26v-.02l.01-.26v-.03l.02-.26v-.03l.01-.26v-.03l.01-.26v-.03l.02-.26v-.03l.02-.26v-.03l.03-.26v-.03l.02-.26.01-.02.02-.26v-.02l.03-.26v-.02l.03-.26.01-.03.03-.26v-.03l.03-.26v-.02l.03-.26v-.02l.03-.26.01-.03.03-.26v-.03l.03-.25v-.03l.03-.26v-.03l.03-.26.01-.03.03-.25v-.03l.04-.26v-.03l.03-.26.01-.03.03-.25.01-.03.04-.26.01-.02.04-.26v-.02l.04-.26v-.02l.04-.25.01-.03.04-.25v-.03l.07-.26.01-.03.04-.25v-.03l.05-.25v-.02l.05-.25v-.02l.05-.26.01-.02.05-.25.01-.02.05-.25.01-.03.05-.25.01-.03.05-.25v-.03l.05-.25v-.02l.05-.25.01-.02.05-.25.01-.02.06-.25v-.03l.06-.25.01-.03.05-.25.01-.03.06-.25v-.03l.06-.25.01-.03.06-.25v-.03l.06-.25.01-.02.06-.25v-.02l.06-.25.01-.03.07-.25v-.02l.07-.25v-.02l.07-.25.01-.03.07-.25v-.03l.07-.25.01-.03.07-.24.01-.02.07-.25.01-.025.07-.25.01-.03.07-.24.01-.02.08-.25.01-.02.07-.24.01-.02.07-.24.01-.02.07-.25.09-.27.09-.27v-.02l.08-.24v-.03l.08-.24.01-.02.35-1 .01-.02.09-.24.01-.02.08-.24.01-.025.08-.24.01-.02.09-.24.01-.02.09-.24v-.02l.09-.24.01-.02.09-.24.01-.03.09-.24.01-.02.09-.24.01-.03.1-.23.01-.02.1-.24.01-.02.1-.24.01-.03.1-.24.01-.03.1-.24.01-.03.1-.24.01-.03.1-.24.01-.03.1-.24.01-.025.1-.23.01-.03.1-.23.01-.03.1-.24.01-.02.11-.24.01-.02.11-.23.01-.02.1-.23.01-.03.11-.23.01-.02.11-.23.01-.02.11-.23.01-.02.11-.23.01-.03.11-.23.01-.02.11-.23.01-.03.11-.23.01-.02.11-.23.01-.02.11-.23.01-.02.11-.23.01-.02.12-.22.01-.02.12-.23.02-.03.12-.23.01-.02.12-.23.01-.03.12-.22.01-.02.12-.22.01-.02.12-.22.01-.03.12-.22.02-.02.12-.22.01-.03.12-.22.02-.02.12-.22.01-.02.12-.22.02-.03.13-.22.01-.02.12-.22.01-.02.13-.22.01-.02.13-.22.01-.02.13-.22.02-.02.13-.22.01-.02.13-.22.02-.02.13-.22.01-.02.13-.22.02-.02.13-.22.01-.02.14-.22.02-.03.14-.22.01-.02.13-.21.02-.02.14-.21.02-.02.13-.22.01-.02.14-.21.01-.02.14-.21.02-.02.14-.22.02-.02.14-.21.01-.03.14-.21.01-.02.14-.21.01-.02.15-.21.02-.02.14-.21.02-.02.15-.21.01-.02.15-.21.01-.02.15-.21.01-.02.15-.21.02-.02.15-.21.01-.02.15-.21.02-.02.15-.2.01-.02.15-.21.02-.02.15-.2.02-.02.15-.2.02-.02.15-.2.02-.02.15-.2.01-.02.15-.2.02-.02.16-.2.02-.02.16-.2.02-.02.16-.2.02-.02.16-.2.02-.02.16-.2.02-.03.16-.2.01-.02.16-.2.02-.02.16-.2.02-.02.16-.19.02-.02.16-.2.02-.02.16-.2.02-.02.17-.19.02-.02.16-.2.02-.02.16-.19.02-.02.16-.2.02-.02.17-.2.01-.02.17-.19.02-.02.17-.19.02-.02.17-.19.02-.02.17-.19.01-.02.17-.19.02-.02.17-.19.02-.02.17-.19.01-.02.17-.19.02-.02.18-.19.01-.02.18-.19.02-.02.19-.18.02-.02.18-.19.02-.02.18-.19.62-.62.19-.18 1.4-1.4.19-.17.02-.02.19-.17.02-.02.19-.18.02-.02.19-.18.02-.01.19-.17.02-.01.19-.17.02-.02.19-.17.02-.02.19-.17.02-.02.19-.17.02-.01.2-.17.02-.02.2-.17.02-.02.2-.17.02-.02.2-.16.02-.02.2-.16.02-.02.19-.16.02-.02.2-.16.02-.02.2-.16.02-.01.2-.16.02-.02.2-.16.02-.02.2-.16.02-.02.21-.16.02-.02.2-.16.02-.02.21-.16.02-.02.21-.16.02-.02.2-.16.02-.01.21-.16.02-.02.2-.16.02-.02.21-.15.02-.02.21-.16.02-.02.21-.15.02-.01.21-.15.24-.17.02-.01.21-.15.02-.02.21-.16.02-.01.22-.15.02-.02.21-.15.03-.01.21-.15.02-.01.21-.15.02-.01.22-.15.02-.02.21-.15.02-.01.22-.14.02-.01.21-.15.03-.02.22-.14.02-.02.22-.15.02-.02.22-.14.03-.01.22-.14.02-.02.22-.14.02-.01.22-.14.02-.01.22-.14.02-.01.22-.14.03-.01.22-.13h.01l101-62 .01-.01.21-.13.02-.01.25-.16.22-.13.03-.02.22-.13.03-.02.22-.13.03-.01.23-.13.02-.02.22-.13.03-.01.22-.13.25-.13.02-.02.23-.12.02-.02.22-.12.03-.01.23-.12.02-.02.22-.12.03-.02.22-.12.03-.02.22-.12.02-.02.23-.12.24-.13.03-.01.22-.12.03-.01.23-.12.03-.01.23-.12.02-.01.23-.11.03-.01.23-.11.03-.01.22-.11.03-.01.48-.23.03-.01.23-.11.03-.02.23-.11.03-.01.23-.11.03-.01.23-.1.03-.01.23-.1.02-.02.23-.1.02-.01.23-.1.03-.02.23-.1.03-.01.23-.1.03-.01.23-.1.03-.01.23-.1.03-.01.23-.1.03-.01.23-.09.03-.01.23-.1.03-.01.24-.1.03-.01.24-.1.03-.02.23-.09.02-.01.24-.09.03-.01.23-.09.02-.01.24-.09.54-.19.27-.1 1.3-.45.27-.09.02-.01.81-.27.24-.07.02-.01.51-.15h.03l.51-.15.02-.01.24-.07.02-.01.81-.24.24-.06.03-.01.24-.06.02-.01.24-.07.024-.01.25-.06h.02l.24-.07h.03l.25-.06.03-.01.25-.06.03-.01.24-.06h.03l.25-.06h.03l.24-.06.03-.01.24-.05.03-.01.24-.06.03-.01.24-.05h.03l.24-.05.03-.01.24-.05h.02l.24-.05.03-.01.25-.05h.02l.25-.05.02-.01.25-.05.03-.01.25-.05.03-.01.25-.04h.03l.24-.04.03-.01.25-.05.03-.01.25-.04h.03l.24-.04.03-.01.25-.04.03-.01.24-.04h.02l.24-.04h.03l.25-.04.03-.01.25-.04h.03l.25-.04h.03l.25-.04h.03l.25-.03h.03l.24-.03h.03l.25-.03.03-.01.25-.03.02-.01.25-.02h.03l.24-.03h.03l.24-.03h.03l.25-.03h.03l.25-.03h.03l.24-.02h.03l.25-.03.03-.01.25-.02.03-.01.25-.02h.03l.25-.02h.03l.25-.02h.03l.25-.01.03-.01.25-.02.02-.01.25-.01h.03l.25-.02h.02l.25-.01h.03l.25-.01h.03l.25-.01h.03l.25-.01.03-.01.25-.01h.03l.25-.01h.03l.25-.01h.03l.25-.01h.03l.25-.01h.02l.25-.01h.31l.25-.01h.58zm-.23 27h-.16l-.16.002h-.16l-2.2.11-2.6.32-.16.03-.16.02-1.1.21-.16.02-.33.06-.65.12-.48.12-.32.06-1.6.4-.16.05-.16.04-.31.1-1.1.35-.16.06-.32.1-.16.06-.47.15-.63.24-.62.25-.48.18-.15.07-.76.34-.31.14-.61.28-.46.21-.3.16-.15.07-.15.08-.15.07-.75.4-.15.09-.14.08-.74.43-.29.17-.14.09-101 62-1.5 1-.15.11-.28.2-.99.7-.14.11-.14.1-.84.66-.13.11-.28.22-.13.11-.28.22-.13.11-.14.11-.26.22-.26.24-.26.22-1.4 1.3-.12.12-.13.12-.12.13-.13.12-.12.13-.12.12-.12.13-.12.12-.24.26-.25.25-.36.39-.11.13-.36.39-.12.14-.12.13-.22.26-.23.27-.12.13-.11.14-.11.13-.66.84-.1.14-.44.56-.3.42-.1.15-.2.28-.1.15-.4.56-.09.15-.1.15-.1.14-.1.15-.09.15-.09.14-.36.6-.2.3-.9 1.5-.09.16-.18.3-.09.16-.08.15-.24.48-.16.3-.08.16-.08.15-.08.16-.07.15-.4.8-.63 1.4-.06.16-.07.16-.07.17-.21.48-.06.16-.07.17-.07.16-.06.16-.06.17-.06.16-.06.17-.06.16-.18.51-.05.17-.06.16-.06.17-.05.17-.05.16-.05.17-.06.17-.1.32-.05.17-.06.17-.05.17-.05.16-.25.85-.08.34-.05.17-.04.17-.05.17-.08.34-.04.18-.24 1-.03.17-.04.17-.03.17-.12.72-.06.34-.06.36-.09.51-.03.18-.04.36-.02.17-.03.18-.03.17-.12 1.1-.02.17-.04.36-.01.18-.04.36-.1 1.8v.18l-.02.36v.18l-.01.18v127l.01.18v.54l.01.17.08 1.4.02.18.03.54.02.17.02.18.02.17.01.18.08.68.02.18.04.34.04.36.02.17.02.18.12.68.03.18.12.68.04.17.09.51.08.34.03.17.28 1.2.04.16.05.16.12.51.05.17.04.16.04.17.04.16.05.17.04.16.1.34.05.16.1.34.05.16.05.17.24.64.05.16.06.17.54 1.4.14.32.3.8.77 1.8.07.15.08.16.08.15.08.16.48.9.09.15.24.45.18.3.24.45.09.15.08.15.09.14.09.15.09.14.18.3.36.56.18.3.1.14.09.14.09.15.18.28.2.28.1.15.7.98.22.28.4.56.22.26.11.14.11.13.11.14 1.2 1.4.24.26.11.13.12.12.12.13.12.12.12.13.11.13.12.13.48.48.12.13.6.6.13.12.24.24.13.12.24.24.13.12.26.22.26.24.26.22.26.24.13.11.42.33.26.22.14.11.13.11.14.1.13.11.69.54.14.1.28.22.43.3.99.7.15.09.15.1.58.39.91.54 105 61 .13.08.47.24.11.07.36.18.12.07.96.48.35.18.12.05.12.06.36.15.24.12.12.05.12.06 1.1.45.12.04.13.05.48.2.12.04.12.05.37.12.12.04.11.04.26.08 2.8.75.25.05 2.5.46 3.3.26h1.3l.26-.01h.26l1-.06 2.3-.21.25-.04 1.3-.21.76-.14.25-.06 2.2-.57.62-.2.25-.08.37-.12.37-.12.13-.05.12-.04.13-.04.12-.05.36-.12.13-.05.12-.04 1.2-.5.24-.12.12-.05.24-.12.12-.05.47-.24 1.4-.73 116-65 .27-.14.36-.21.12-.08.49-.28.24-.16.36-.21.24-.16.12-.07.12-.08.12-.07.55-.4.12-.08.11-.08.12-.08.55-.4.12-.08.11-.09.11-.08.11-.09.11-.08.33-.27.22-.16.11-.09.1-.09.22-.18.21-.17.11-.1.1-.09.11-.09.2-.18.1-.1.11-.09.1-.1.1-.09.2-.2.1-.09.1-.1.1-.09.4-.4.09-.1.1-.1.09-.1.3-.3.36-.4.1-.1.63-.7.27-.33.27-.3.09-.11.09-.1.17-.21.16-.22.08-.1.09-.11.96-1.3.07-.11.07-.12.08-.12.08-.11.14-.22.08-.12.08-.11.07-.11.28-.48.07-.11.14-.24.07-.11.21-.36.12-.24.14-.24.06-.12.14-.24.12-.24.06-.13.06-.12.14-.24.18-.36.06-.13.12-.24.06-.13.12-.24.18-.39.06-.12.05-.12.15-.39.05-.12.15-.39.05-.12.25-.65.16-.52.2-.52.04-.13.05-.13.08-.26.05-.13.16-.52.03-.13.16-.52.03-.13.03-.14.04-.13.03-.13.03-.14.04-.13.09-.39.03-.14.06-.26.02-.14.03-.14.03-.13.02-.14.03-.13.06-.28.03-.13.03-.14.02-.14.03-.14.02-.13.03-.13.14-.98.01-.14.02-.13.01-.14.02-.14.02-.13.02-.14.04-.56.02-.14.11-1.5v-.28l.01-.14v-138l-.01-.12-.01-.13v-.13l-.01-.13v-.13l-.01-.13v-.13l-.01-.13-.01-.12-.03-.39-.01-.12-.01-.13-.01-.12-.01-.13-.02-.13-.02-.24-.02-.12-.01-.12-.02-.13-.01-.12-.02-.12-.02-.13-.01-.13-.01-.12-.02-.11-.04-.26-.03-.26-.04-.26-.04-.25-.1-.5-.04-.25-.05-.25-.42-1.8-.21-.75-.08-.25-.07-.24-.32-.96-.18-.48-.09-.23-.27-.72-.1-.23-.09-.24-.3-.69-.11-.23-.1-.23-.22-.46-.11-.22-.12-.23-.11-.23-.12-.23-.6-1.1-.39-.66-.14-.22-.26-.42-.84-1.3-.75-1-.64-.8-.16-.19-.17-.19-.16-.19-.85-.95-.9-.9-.38-.36-1.2-1-.4-.32-.89-.72-.1-.07-.2-.16-.22-.16-.3-.24-.1-.07-.1-.08-.31-.22-.11-.08-.22-.14-.1-.07-.99-.63-.35-.19-113-66-.16-.098-.14-.08-.45-.26-.15-.08-.6-.32-1-.56-.15-.07-.15-.08-.3-.14-.15-.08-.16-.07-.46-.21-.15-.07-.15-.06-.16-.07-.15-.07-.15-.07-.16-.06-.31-.12-.15-.07-.16-.06-.16-.07-.16-.06-.79-.3-.15-.06-.3-.1-.16-.06-.16-.05-.47-.15-.63-.2-.63-.2-.16-.04-.16-.05-.16-.04-.16-.05-.48-.12-.16-.05-.32-.08-.16-.03-.48-.12-.16-.03-.16-.04-.32-.06-.16-.04-1.1-.21-.64-.08-.32-.06-.16-.02-.17-.03-.16-.02-.16-.03-.97-.12-.16-.01-.32-.04-1.5-.09h-.16l-.32-.02h-.17l-.63-.04h-.33l-.16-.01h-.32z" fill="#c9177e"></path><path d="M93 296V89h43v75h72V89h43v207h-43v-91h-72v91z" fill="#fff"></path></svg>