<svg xmlns="http://www.w3.org/2000/svg" xmlns:xlink="http://www.w3.org/1999/xlink" version="1.1" id="Layer_1" x="0px" y="0px" width="100%" viewBox="0 0 200 200" enable-background="new 0 0 200 200" xml:space="preserve">

<path fill="#24BEF1" opacity="1.000000" stroke="none" d=" M135.429230,92.543411   C139.417526,89.844925 143.007324,87.188461 146.854355,84.980080   C157.166306,79.060524 167.528931,73.222733 177.989914,67.571793   C183.919052,64.368912 190.899445,66.337128 194.010086,71.668228   C197.316437,77.334793 195.491913,84.516205 189.623230,88.127792   C182.640961,92.424690 175.549667,96.544464 167.815018,101.152405   C175.197601,105.466240 181.845673,109.360115 188.502884,113.238274   C195.184921,117.130905 197.413254,124.265770 193.897873,130.565735   C190.549652,136.566147 183.618362,137.999390 176.711990,134.062027   C164.076096,126.858200 151.425735,119.678726 138.844482,112.380379   C130.835831,107.734589 129.405930,99.765427 135.429230,92.543411  z"/>
<path fill="#24BEF1" opacity="1.000000" stroke="none" d=" M13.958783,112.913239   C20.614262,108.982559 26.959030,105.246124 34.003090,101.097885   C26.359632,96.593330 19.295784,92.432922 12.234532,88.268112   C6.636036,84.966049 4.717307,77.865097 7.779637,71.800842   C10.416992,66.578156 17.676739,64.168442 23.246912,67.241264   C36.867317,74.755051 50.490860,82.290817 63.786800,90.355743   C73.261452,96.102783 72.104630,107.279610 61.972435,113.022217   C49.462238,120.112610 36.984577,127.260864 24.525242,134.440323   C18.669884,137.814346 11.555140,136.488968 8.207146,131.268204   C4.613276,125.664024 6.314497,117.742432 11.908347,114.084724   C12.463771,113.721535 13.067020,113.431480 13.958783,112.913239  z"/>
<path fill="#24BEF1" opacity="1.000000" stroke="none" d=" M39.939377,56.167618   C37.491150,54.701038 35.388378,53.369240 33.255207,52.088062   C27.087437,48.383724 24.950504,41.399666 28.166433,35.387089   C30.871054,30.330467 38.886303,28.072495 44.697807,31.168190   C51.260242,34.663895 57.579472,38.615211 64.022568,42.337055   C64.848915,42.814392 65.783981,43.103539 67.516632,43.840553   C67.516632,35.082188 67.475052,26.851929 67.528297,18.622282   C67.581871,10.341828 72.240059,5.980363 80.320244,6.526126   C85.665764,6.887181 89.174515,9.472770 90.120430,14.745193   C90.876419,18.959055 90.917206,23.332203 90.956924,27.637590   C91.061356,38.959187 91.069923,50.283161 90.957344,61.604603   C90.905327,66.836945 90.259949,71.975281 84.892456,74.835182   C79.172707,77.882751 74.157257,76.059105 69.022659,72.954918   C59.549847,67.228020 49.866543,61.849304 39.939377,56.167618  z"/>
<path fill="#24BEF1" opacity="1.000000" stroke="none" d=" M90.978279,138.527191   C90.990273,153.142593 91.070305,167.308121 90.963951,181.472260   C90.892563,190.980576 87.035515,195.416885 79.187439,195.481323   C71.973511,195.540558 67.667030,191.470062 67.543518,184.226288   C67.427048,177.395721 67.529846,170.561646 67.502022,163.729248   C67.495499,162.127167 67.351326,160.525650 67.238937,158.298935   C59.365215,162.771790 52.160374,167.041473 44.786484,170.995956   C39.190025,173.997223 32.536324,172.478317 28.858641,167.779877   C26.297838,164.508301 25.889734,156.621246 29.017809,153.751266   C32.625973,150.440781 36.977314,147.871017 41.217213,145.332489   C50.706501,139.651016 60.362442,134.248642 69.883087,128.618576   C78.364265,123.603203 89.975967,124.706940 90.978279,138.527191  z"/>
<path fill="#24BEF1" opacity="1.000000" stroke="none" d=" M127.203995,75.793839   C116.718277,77.634445 111.531555,73.317223 111.519821,63.144119   C111.502556,48.173660 111.467140,33.202927 111.538124,18.232780   C111.574959,10.463741 116.028755,6.271295 123.690910,6.520698   C129.740738,6.717620 133.413055,9.536799 134.348068,15.566255   C135.004822,19.801445 134.887283,24.167477 134.970978,28.477888   C135.063797,33.258221 134.992233,38.041744 134.992233,43.764160   C140.439163,40.603760 145.114853,37.643410 150.017456,35.124763   C153.921768,33.118965 157.972733,31.120573 162.195511,30.085312   C167.117538,28.878622 172.026642,32.021114 174.018021,36.585548   C176.184250,41.550774 175.353973,47.034405 171.074585,50.049637   C165.421814,54.032566 159.374619,57.472977 153.390869,60.964794   C144.844833,65.951851 136.202652,70.774178 127.203995,75.793839  z"/>
<path fill="#24BEF1" opacity="1.000000" stroke="none" d=" M149.800964,139.125946   C156.120972,142.801743 162.092087,146.352127 168.099426,149.840103   C173.506500,152.979553 175.901093,157.523682 174.903412,162.950546   C174.004120,167.842178 169.245636,172.496735 163.829620,172.809296   C161.399994,172.949554 158.676010,171.831314 156.432129,170.634476   C149.463043,166.917389 142.659973,162.889038 134.992004,158.525986   C134.992004,164.721405 135.043747,170.423645 134.971527,176.124313   C134.931656,179.272491 134.968719,182.463699 134.473053,185.555664   C133.289902,192.936249 129.084702,196.041718 121.578499,195.469101   C115.295982,194.989822 111.560326,190.691116 111.534004,183.644974   C111.479309,169.002625 111.574692,154.359589 111.482140,139.717606   C111.450386,134.694519 111.840485,129.946930 116.904518,127.308907   C122.163048,124.569580 127.158081,125.838081 131.976105,128.696289   C137.792099,132.146545 143.636017,135.549774 149.800964,139.125946  z"/>
<path fill="#24BFF2" opacity="1.000000" stroke="none" d=" M82.064178,107.749481   C77.790497,103.050926 77.724930,98.720200 81.745163,94.604034   C85.912804,90.336929 90.132645,86.119202 94.395699,81.947357   C98.770218,77.666428 103.233986,77.674088 107.618690,81.962135   C111.764755,86.016800 115.871140,90.113762 119.924911,94.260605   C124.455147,98.894836 124.425880,103.142174 119.825089,107.847717   C115.771210,111.993896 111.659897,116.085503 107.511490,120.137253   C103.312790,124.238121 98.747078,124.298416 94.645767,120.300224   C90.493309,116.252182 86.423393,112.119461 82.064178,107.749481  M103.861771,95.509605   C101.847099,93.271599 99.731544,93.456726 98.016815,95.676773   C96.507317,97.631111 94.010757,100.269615 94.455917,101.936951   C95.072807,104.247498 97.746864,106.627357 100.108536,107.606590   C101.393188,108.139259 104.088661,106.121277 105.737167,104.757401   C109.906746,101.307709 107.470444,98.532700 103.861771,95.509605  z"/>

</svg>